<svg aria-hidden="true" style="position: absolute; width: 0; height: 0; overflow: hidden;" version="1.1" xmlns="http://www.w3.org/2000/svg" xmlns:xlink="http://www.w3.org/1999/xlink">
<defs>
<symbol id="ball" viewBox="0 0 32 32">
<path d="M14.916 11.266c-1.706-2.997-3.348-5.512-5.121-7.925l0.156 0.222c-3.74 1.799-6.475 5.177-7.361 9.246l-0.016 0.088c0.35 0.008 5.922 0.073 12.343-1.632zM16.58 15.757c0.175-0.056 0.352-0.109 0.527-0.158-0.457-1.039-0.82-1.786-1.203-2.521l0.117 0.247c-6.882 2.061-13.491 1.912-13.724 1.905-0.004 0.141-0.009 0.282-0.009 0.425 0 3.437 1.299 6.569 3.43 8.939l-0.008-0.013s3.657-6.49 10.871-8.824zM7.437 26.195l0.002-0.008c-0.098-0.077-0.203-0.147-0.301-0.23 0.177 0.143 0.299 0.237 0.299 0.237zM12.452 2.675c-0.010 0.003-0.022 0.006-0.034 0.007l-0.001 0 0.036-0.008zM24.484 5.621c-2.335-2.071-5.426-3.336-8.812-3.336-0.006 0-0.011 0-0.017 0h0.001c-1.088 0-2.14 0.132-3.149 0.376 0.203 0.269 2.711 3.603 4.998 7.799 5.039-1.888 6.944-4.783 6.98-4.84zM15.654 31.309c-8.572-0.097-15.484-7.069-15.484-15.655s6.912-15.558 15.475-15.655l0.009-0c8.572 0.097 15.484 7.069 15.484 15.655s-6.912 15.558-15.475 15.655l-0.009 0zM17.928 17.843c-7.846 2.733-10.436 8.235-10.488 8.346 2.242 1.769 5.109 2.837 8.225 2.837 1.881 0 3.671-0.389 5.294-1.092l-0.086 0.033c-0.198-1.171-0.975-5.267-2.856-10.152l-0.088 0.026zM18.53 12.454c0.326 0.627 0.721 1.491 1.085 2.373l0.093 0.255c4.617-0.58 9.165 0.405 9.312 0.439-0.027-3.188-1.171-6.103-3.058-8.38l0.018 0.022c-0.028 0.041-2.172 3.136-7.45 5.291zM20.521 17.195c1.756 4.823 2.47 8.749 2.603 9.547 3.004-2.044 5.112-5.214 5.721-8.89l0.011-0.078c-0.267-0.085-4.011-1.272-8.335-0.58z"></path>
</symbol>
<symbol id="be" viewBox="0 0 32 32">
<path d="M12.83 15.025s3.008-0.233 3.008-3.908c0.002-3.676-2.46-5.47-5.577-5.47h-10.261v20.54h10.261s6.263 0.207 6.263-6.065c0 0 0.273-5.097-3.693-5.097zM4.521 9.299h5.737s1.395 0 1.395 2.138c0 2.136-0.821 2.447-1.751 2.447h-5.382v-4.585zM9.969 22.537h-5.448v-5.491h5.737s2.078-0.026 2.078 2.82c0.002 2.404-1.551 2.652-2.368 2.671zM24.875 10.874c-7.58 0-7.573 7.889-7.573 7.889s-0.521 7.855 7.573 7.855c0 0 6.746 0.403 6.746-5.463h-3.467s0.115 2.21-3.162 2.21c0 0-3.473 0.243-3.473-3.576h10.219c0-0.002 1.116-8.915-6.863-8.915zM27.96 17.047h-6.475s0.424-3.162 3.469-3.162c3.042-0.002 3.006 3.162 3.006 3.162zM28.766 6.857h-8.132v2.532h8.132v-2.532z"></path>
</symbol>
<symbol id="facebook" viewBox="0 0 32 32">
<path d="M24.469 5.619h-5.129c-0.608 0-1.286 0.798-1.286 1.865v3.708h6.417v5.278h-6.417v15.855h-6.052v-15.853h-5.491v-5.28h5.491v-3.11c0-4.457 3.093-8.081 7.339-8.081h5.129v5.619z"></path>
</symbol>
<symbol id="facebook-old" viewBox="0 0 32 32">
<path d="M28 0h-24c-2.206 0.007-3.993 1.794-4 3.999v24.001c0.005 2.207 1.793 3.995 3.999 4h12.14v-11.475h-3.834v-4.998h3.834v-2.504c0-3.861 2.848-6.884 6.485-6.884h3.533v5.643h-3.16c-0.824 0-1.071 0.474-1.071 1.131v2.613h4.232v4.998h-4.232v11.475h6.074c2.207-0.005 3.995-1.793 4-3.999v-24.001c-0.005-2.207-1.793-3.995-3.999-4h-0.001z"></path>
</symbol>
<symbol id="gadgets" viewBox="0 0 32 32">
<path d="M1.5 32h14c0.276 0 0.5-0.225 0.5-0.5s-0.224-0.5-0.5-0.5h-14c-0.276 0-0.5-0.225-0.5-0.5v-29c0-0.276 0.224-0.5 0.5-0.5h21c0.275 0 0.5 0.224 0.5 0.5v5c0 0.276 0.225 0.5 0.5 0.5s0.5-0.224 0.5-0.5v-5c-0.001-0.828-0.672-1.499-1.5-1.5h-21c-0.828 0.001-1.499 0.672-1.5 1.5v29c0.001 0.828 0.672 1.499 1.5 1.5h0z"></path>
<path d="M18 10.5v20c0.001 0.828 0.672 1.499 1.5 1.5h11c0.828-0.001 1.499-0.672 1.5-1.5v-20c-0.001-0.828-0.672-1.499-1.5-1.5h-11c-0.828 0.001-1.499 0.672-1.5 1.5v0zM31 10.5v20c0 0.275-0.225 0.5-0.5 0.5h-11c-0.276-0.001-0.499-0.224-0.5-0.5v-20c0-0.276 0.225-0.5 0.5-0.5h11c0.275 0 0.5 0.224 0.5 0.5zM12 29c0.552 0 1-0.448 1-1s-0.448-1-1-1v0c-0.552 0-1 0.448-1 1s0.448 1 1 1v0z"></path>
<path d="M25 29c0.552 0 1-0.448 1-1s-0.448-1-1-1v0c-0.552 0-1 0.448-1 1s0.448 1 1 1v0z"></path>
</symbol>
<symbol id="graphic" viewBox="0 0 42 32">
<path d="M38.936 0c-1.651 0-2.995 1.346-2.995 3 0 0.888 0.395 1.679 1.010 2.229l-8.786 14.031c-0.355-0.164-0.771-0.259-1.209-0.26h-0c-0.867 0-1.642 0.376-2.19 0.967l-9.058-5.745c0.167-0.359 0.264-0.779 0.266-1.222v-0c0-1.654-1.344-3-2.995-3s-2.995 1.346-2.995 3c0 0.904 0.409 1.706 1.042 2.256l-6.884 10.974c-0.339-0.145-0.733-0.23-1.148-0.23h-0c-1.651 0-2.995 1.346-2.995 3s1.344 3 2.995 3 2.995-1.346 2.995-3c0-0.888-0.394-1.678-1.009-2.229l6.893-10.989c0.342 0.138 0.714 0.218 1.104 0.218 0.857 0 1.626-0.367 2.172-0.947l9.063 5.748c-0.161 0.368-0.254 0.772-0.254 1.199 0 1.654 1.344 3 2.995 3s2.995-1.346 2.995-3c0-0.863-0.37-1.636-0.956-2.184l8.797-14.046c0.338 0.145 0.731 0.23 1.144 0.23h0c1.651 0 2.995-1.346 2.995-3s-1.344-3-2.995-3zM4.992 29c0 0 0 0 0 0 0 1.103-0.893 1.998-1.996 2h-0c-1.103-0.002-1.997-0.896-1.997-2 0 0 0 0 0 0v0c0-0 0-0 0-0 0-1.103 0.894-1.998 1.997-2h0c1.103 0.002 1.997 0.896 1.997 2 0 0 0 0 0 0v-0zM12.979 15c-1.101 0-1.997-0.897-1.997-2s0.896-2 1.997-2 1.996 0.897 1.996 2c0 1.103-0.895 2-1.996 2zM26.956 24c-1.103-0.001-1.997-0.896-1.997-1.999 0-0 0-0.001 0-0.001v0c0-0 0-0 0-0.001 0-1.103 0.894-1.998 1.997-1.999h0c1.103 0.001 1.997 0.896 1.997 1.999 0 0 0 0.001 0 0.001v-0c0 0 0 0 0 0.001 0 1.103-0.894 1.998-1.996 1.999h-0zM38.936 5c-1.102 0-1.996-0.897-1.996-2s0.895-2 1.996-2c1.103 0.002 1.997 0.896 1.997 2 0 0 0 0 0 0v0c0 0 0 0 0 0 0 1.103-0.894 1.998-1.997 2h-0z"></path>
</symbol>
<symbol id="instagram" viewBox="0 0 32 32">
<path d="M25.672 15.998c-0.010 5.334-4.337 9.653-9.672 9.653-5.341 0-9.672-4.33-9.672-9.672 0-0.651 0.064-1.288 0.187-1.903l-0.010 0.062h-6.505v12.858c0 2.761 2.238 5 5 5v0h21.997c2.76-0.002 4.997-2.239 5-4.999v-12.859h-6.505c0.119 0.602 0.181 1.224 0.181 1.86zM26.997 0h-21.997c-2.761 0-5 2.238-5 5v0 5.417h8.1c1.77-2.489 4.644-4.092 7.892-4.092 0.002 0 0.003 0 0.005 0h-0c3.264 0 6.15 1.615 7.896 4.092h8.104v-5.417c-0.002-2.76-2.239-4.997-4.999-5h-0zM29.442 6.176c-0.002 0.493-0.401 0.892-0.894 0.894h-2.681c-0.493-0.001-0.892-0.401-0.892-0.894 0 0 0 0 0 0v0-2.679c0-0.491 0.399-0.894 0.892-0.894h2.68c0.489 0 0.894 0.401 0.894 0.894v2.679zM21.948 15.998c0-0.001 0-0.001 0-0.002 0-3.287-2.665-5.952-5.952-5.952s-5.951 2.664-5.952 5.95v0c0 0.001 0 0.001 0 0.002 0 3.287 2.665 5.952 5.952 5.952s5.951-2.664 5.952-5.95v-0z"></path>
</symbol>
<symbol id="lamp" viewBox="0 0 22 32">
<path d="M11.040 0c-5.309 0-11.040 4.206-11.040 11 0 3.353 1.339 6.174 3.91 8.312 0.027 0.033 0.058 0.062 0.092 0.088 1.908 2.062 2.004 2.453 2.017 3.36 0.006 0.359 0.003 0.466 0 0.523l-0.004 0.209c-0.015 0.452-0.038 1.209 0.902 1.495l8.123 1.781c0.033 0.008 0.070 0.012 0.109 0.012 0.239 0 0.438-0.167 0.488-0.391l0.001-0.003c0.008-0.032 0.012-0.070 0.012-0.108 0-0.238-0.167-0.438-0.391-0.487l-0.003-0.001-8.084-1.771c-0.156-0.047-0.169-0.052-0.155-0.498l0.003-0.191s0.010-0.078 0.002-0.586c-0.019-1.27-0.296-1.882-2.317-4.059-0.039-0.046-0.084-0.085-0.135-0.116l-0.002-0.001c-2.364-2.002-3.563-4.548-3.563-7.568 0-6.177 5.209-10 10.036-10 4.934 0 10.036 3.741 10.036 10 0 3.978-1.935 6.171-3.531 7.551-0.058 0.028-0.107 0.064-0.147 0.108l-0 0c-2.044 2.204-2.322 2.816-2.34 4.086 0 0.029-0.001 0.064 0 0.104l-0.001 0.034c-0.003 0.076-0.014 0.118-0.014 0.134l-0.116-0.018-4.21-0.987c-0.035-0.009-0.074-0.013-0.115-0.013-0.236 0-0.433 0.163-0.487 0.382l-0.001 0.003c-0.008 0.035-0.013 0.074-0.013 0.115 0 0.236 0.163 0.434 0.383 0.488l0.003 0.001 4.159 0.972c0.055 0.020 0.555 0.182 0.977-0.113 0.185-0.129 0.397-0.382 0.436-0.865l0.003-0.047c0.001-0.033 0.002-0.065 0.002-0.1 0-0.009 0-0.018-0.001-0.025l0.001-0.047c0.014-0.902 0.108-1.294 2.012-3.355 0.009-0.008 0.019-0.014 0.027-0.022 2.676-2.243 3.977-4.986 3.977-8.386 0-6.885-5.613-11-11.040-11zM15.054 29.5c0.23 0 0.438-0.157 0.488-0.391 0.008-0.034 0.013-0.072 0.013-0.112 0-0.237-0.166-0.436-0.388-0.486l-0.003-0.001-8.029-1.813c-0.033-0.008-0.072-0.012-0.111-0.012-0.237 0-0.436 0.165-0.488 0.386l-0.001 0.003c-0.008 0.034-0.013 0.072-0.013 0.112 0 0.237 0.166 0.436 0.388 0.486l0.003 0.001 8.029 1.814c0.039 0.009 0.076 0.013 0.112 0.013zM7.637 29.554c-0.033-0.008-0.071-0.012-0.11-0.012-0.238 0-0.437 0.165-0.49 0.387l-0.001 0.003c-0.008 0.033-0.012 0.071-0.012 0.11 0 0.238 0.166 0.438 0.389 0.488l0.003 0.001 6.524 1.458c0.033 0.008 0.071 0.012 0.111 0.012 0.238 0 0.437-0.166 0.489-0.388l0.001-0.003c0.008-0.033 0.012-0.071 0.012-0.11 0-0.238-0.166-0.437-0.389-0.488l-0.003-0.001-6.524-1.457z"></path>
</symbol>
<symbol id="linkedin" viewBox="0 0 32 32">
<path d="M7.247 3.42c0 1.89-1.395 3.42-3.691 3.42-2.161 0.002-3.556-1.528-3.556-3.42 0-1.935 1.44-3.42 3.646-3.42 2.204 0 3.556 1.485 3.601 3.42zM0.181 31.552v-22.010h6.84v22.008l-6.84 0.002zM11.115 16.565c0-2.746-0.088-5.041-0.179-7.021h5.941l0.316 3.061h0.134c0.9-1.442 3.106-3.556 6.795-3.556 4.501-0.002 7.878 3.014 7.878 9.496v13.007h-6.842v-12.198c0-2.835-0.988-4.77-3.465-4.77-1.892 0-3.016 1.304-3.509 2.566-0.183 0.45-0.226 1.080-0.226 1.709v12.693h-6.842v-14.987z"></path>
</symbol>
<symbol id="logo" viewBox="0 0 28 32">
<path d="M8.423 32l-7.283-13.286 7.283-13.286 7.894-4.341 10.369 17.628-7.883 13.284h-10.381z"></path>
</symbol>
<symbol id="twitter" viewBox="0 0 32 32">
<path d="M32 6.632c-1.18 0.52-2.442 0.876-3.77 1.034 1.356-0.823 2.375-2.084 2.871-3.583l0.013-0.047c-1.199 0.724-2.595 1.276-4.082 1.576l-0.084 0.014c-1.2-1.276-2.899-2.070-4.784-2.070-0.004 0-0.007 0-0.011 0h0.001c-0.001 0-0.002 0-0.003 0-3.625 0-6.564 2.939-6.564 6.564 0 0.531 0.063 1.047 0.182 1.541l-0.009-0.045c-5.469-0.283-10.279-2.882-13.506-6.827l-0.026-0.033c-0.561 0.947-0.893 2.086-0.893 3.304 0 2.268 1.151 4.268 2.901 5.446l0.023 0.015c-1.097-0.035-2.116-0.334-3.007-0.835l0.033 0.017v0.082c0.002 3.166 2.242 5.808 5.223 6.429l0.043 0.007c-0.517 0.146-1.111 0.229-1.725 0.229-0.438 0-0.866-0.043-1.281-0.124l0.042 0.007c0.863 2.629 3.271 4.505 6.126 4.56l0.006 0c-2.215 1.753-5.049 2.812-8.13 2.812-0.56 0-1.112-0.035-1.654-0.103l0.065 0.007c2.839 1.85 6.313 2.95 10.045 2.95 0.007 0 0.015 0 0.022 0h-0.001c12.074 0 18.68-10.004 18.68-18.678 0-0.286-0.008-0.57-0.022-0.852 1.291-0.938 2.378-2.063 3.246-3.349l0.030-0.047z"></path>
</symbol>
</defs>
</svg>